# xmcd
#
# Track frame offsets: 
#        150
#        14585
#        27318
#        41146
#        51868
#        71179
#        81341
#        94386
#        109405
#        122157
#        131868
#        148158
#
# Disc length: 2177 seconds
#
# Revision: 0
# Processed by: cddbd v1.5.2PL0 Copyright (c) Steve Scherf et al.
# Submitted via: ExactAudioCopy v0.99pb4
#
DISCID=bf087f0c
DTITLE=Various Artist - Country Stars on LP Vol. 4
DYEAR=1983
DGENRE=Classic Country
TTITLE0=Mel Street - Borrowed Angel
TTITLE1=Dottie West - I Fall to Pieces
TTITLE2=Narvel Felts - Drift Away
TTITLE3=Hank Locklin - Please Help Me I'm Falling
TTITLE4=Alabama - I Wanna Be With You Tonight
TTITLE5=Oak Ridge Boys - Golden Hills Ahead
TTITLE6=Carl Smith - Kisses Don't Lie
TTITLE7=Mike Lunsford - Honey Hungry
TTITLE8=Carl and Pearl Butler - Don't Let Me Cross Over
TTITLE9=Johnny Lee - Red Sails in the Sunset
TTITLE10=Jimmie Davis - You Are My Sunshine
TTITLE11=Carl Smith - I Just Loved Her for the Last Time Again
EXTD=
EXTT0=
EXTT1=
EXTT2=
EXTT3=
EXTT4=
EXTT5=
EXTT6=
EXTT7=
EXTT8=
EXTT9=
EXTT10=
EXTT11=
PLAYORDER=
